<svg width="102" height="17" viewBox="0 0 102 17" fill="none" xmlns="http://www.w3.org/2000/svg">
<path d="M11.726 0.131999H13.238V8.862H11.726V0.131999ZM2.744 9.672H4.22V11.652H11.762V9.672H13.238V16.188H2.744V9.672ZM4.22 12.84V14.982H11.762V12.84H4.22ZM4.508 0.905999C6.974 0.905999 8.738 2.436 8.738 4.65C8.738 6.882 6.974 8.412 4.508 8.412C2.042 8.412 0.26 6.882 0.26 4.65C0.26 2.436 2.042 0.905999 4.508 0.905999ZM4.508 2.148C2.888 2.148 1.718 3.174 1.718 4.65C1.718 6.126 2.888 7.152 4.508 7.152C6.128 7.152 7.298 6.126 7.298 4.65C7.298 3.174 6.128 2.148 4.508 2.148ZM17.1246 8.196H18.2946C21.4986 8.196 23.0826 8.142 25.0266 7.8L25.1886 9.006C23.1726 9.366 21.5526 9.42 18.2946 9.42H17.1246V8.196ZM17.0886 1.104H24.1086V5.73H18.6006V8.934H17.1246V4.56H22.6326V2.328H17.0886V1.104ZM28.3386 0.149999H29.8326V10.14H28.3386V0.149999ZM25.1886 2.544H28.6806V3.768H25.1886V2.544ZM25.1886 5.91H28.6806V7.134H25.1886V5.91ZM18.9426 11.022H29.8326V16.44H28.3386V12.246H18.9426V11.022ZM32.9812 2.904H41.0452V4.128H32.9812V2.904ZM37.0132 5.208C39.0472 5.208 40.5232 6.738 40.5232 8.934C40.5232 11.112 39.0472 12.642 37.0132 12.642C34.9972 12.642 33.5212 11.112 33.5212 8.934C33.5212 6.738 34.9972 5.208 37.0132 5.208ZM37.0132 6.486C35.7712 6.486 34.8712 7.494 34.8712 8.934C34.8712 10.374 35.7712 11.382 37.0132 11.382C38.2732 11.382 39.1912 10.374 39.1912 8.934C39.1912 7.494 38.2732 6.486 37.0132 6.486ZM45.3472 0.131999H46.7872V16.404H45.3472V0.131999ZM42.7552 6.972H45.8332V8.214H42.7552V6.972ZM41.8732 0.491999H43.2772V15.612H41.8732V0.491999ZM36.2932 0.6H37.7692V3.66H36.2932V0.6ZM56.0918 1.734H57.3878V2.418C57.3878 5.334 54.2918 7.476 51.0158 8.034L50.4398 6.846C53.3018 6.432 56.0918 4.56 56.0918 2.418V1.734ZM56.4698 1.734H57.7478V2.418C57.7478 4.56 60.5558 6.432 63.3998 6.846L62.8418 8.034C59.5478 7.476 56.4698 5.334 56.4698 2.418V1.734ZM56.1458 10.194H57.6218V16.404H56.1458V10.194ZM49.5758 9.402H64.2818V10.626H49.5758V9.402ZM50.9438 1.14H62.8598V2.346H50.9438V1.14ZM72.5424 5.946H75.6564V7.188H72.5424V5.946ZM69.5004 1.662H70.6704V4.758C70.6704 8.16 69.2484 11.454 66.8724 12.912L65.9364 11.778C68.1684 10.464 69.5004 7.548 69.5004 4.758V1.662ZM69.7884 1.662H70.9404V4.704C70.9404 7.314 72.1644 10.086 74.3064 11.382L73.4424 12.552C71.1024 11.112 69.7884 7.872 69.7884 4.704V1.662ZM78.5184 0.131999H79.9584V16.404H78.5184V0.131999ZM75.2244 0.473999H76.6284V15.594H75.2244V0.473999ZM86.293 8.502H87.769V13.38H86.293V8.502ZM92.305 8.502H93.799V13.38H92.305V8.502ZM82.693 13.092H97.435V14.334H82.693V13.092ZM90.037 1.158C93.475 1.158 95.941 2.796 95.941 5.352C95.941 7.89 93.475 9.528 90.037 9.528C86.581 9.528 84.115 7.89 84.115 5.352C84.115 2.796 86.581 1.158 90.037 1.158ZM90.037 2.346C87.427 2.346 85.555 3.534 85.555 5.352C85.555 7.152 87.427 8.34 90.037 8.34C92.647 8.34 94.501 7.152 94.501 5.352C94.501 3.534 92.647 2.346 90.037 2.346ZM101.452 1.90909L101.369 11.2479H100.244L100.161 1.90909H101.452ZM100.806 15.0959C100.555 15.0959 100.337 15.0064 100.154 14.8274C99.9751 14.6442 99.8857 14.4268 99.8857 14.1754C99.8857 13.9197 99.9751 13.7024 100.154 13.5234C100.337 13.3445 100.555 13.255 100.806 13.255C101.058 13.255 101.273 13.3445 101.452 13.5234C101.635 13.7024 101.727 13.9197 101.727 14.1754C101.727 14.3416 101.684 14.495 101.599 14.6357C101.518 14.7763 101.407 14.8892 101.266 14.9744C101.13 15.0554 100.977 15.0959 100.806 15.0959Z" fill="#D3D3D3"/>
</svg>
