<svg width="43" height="16" viewBox="0 0 43 16" fill="none" xmlns="http://www.w3.org/2000/svg">
<path d="M0.656 12.064H14.064V13.792H0.656V12.064ZM6.272 9.264H8.4V12.768H6.272V9.264ZM2.16 1.568H12.56V6.496H4.304V8.992H2.192V4.832H10.448V3.248H2.16V1.568ZM2.192 8.144H12.896V9.856H2.192V8.144ZM16.7348 1.968H26.1268V3.648H16.7348V1.968ZM15.3748 11.76H28.7668V13.488H15.3748V11.76ZM25.0068 1.968H27.1188V3.728C27.1188 5.808 27.1188 7.824 26.5908 10.864L24.4628 10.688C25.0068 7.84 25.0068 5.728 25.0068 3.728V1.968ZM40.2535 0.624H42.3975V11.264H40.2535V0.624ZM32.5255 13.472H42.7655V15.168H32.5255V13.472ZM32.5255 10.192H34.6535V14.16H32.5255V10.192ZM34.3335 1.552C36.6055 1.552 38.3495 3.12 38.3495 5.312C38.3495 7.488 36.6055 9.072 34.3335 9.072C32.0615 9.072 30.3015 7.488 30.3015 5.312C30.3015 3.12 32.0615 1.552 34.3335 1.552ZM34.3335 3.392C33.2295 3.392 32.3815 4.096 32.3815 5.312C32.3815 6.512 33.2295 7.216 34.3335 7.216C35.4215 7.216 36.2695 6.512 36.2695 5.312C36.2695 4.096 35.4215 3.392 34.3335 3.392Z" fill="white"/>
</svg>
