<svg width="48" height="13" viewBox="0 0 48 13" fill="none" xmlns="http://www.w3.org/2000/svg">
<path d="M0.783 9.427H11.677V10.831H0.783V9.427ZM5.346 7.152H7.075V9.999H5.346V7.152ZM2.005 0.899H10.455V4.903H3.747V6.931H2.031V3.551H8.739V2.264H2.005V0.899ZM2.031 6.242H10.728V7.633H2.031V6.242ZM13.847 1.224H21.478V2.589H13.847V1.224ZM12.742 9.18H23.623V10.584H12.742V9.18ZM20.568 1.224H22.284V2.654C22.284 4.344 22.284 5.982 21.855 8.452L20.126 8.309C20.568 5.995 20.568 4.279 20.568 2.654V1.224ZM27.912 0.950999C29.745 0.950999 31.071 2.615 31.071 5.241C31.071 7.893 29.745 9.557 27.912 9.557C26.079 9.557 24.753 7.893 24.753 5.241C24.753 2.615 26.079 0.950999 27.912 0.950999ZM27.912 2.524C27.015 2.524 26.417 3.473 26.417 5.241C26.417 7.035 27.015 7.997 27.912 7.997C28.809 7.997 29.42 7.035 29.42 5.241C29.42 3.473 28.809 2.524 27.912 2.524ZM32.384 0.119H34.126V12.157H32.384V0.119ZM33.736 4.656H35.868V6.086H33.736V4.656ZM36.647 5.397H47.541V6.788H36.647V5.397ZM41.21 6.008H42.926V7.919H41.21V6.008ZM41.171 8.4H42.64V8.608C42.64 10.363 41.002 11.832 37.908 12.118L37.349 10.818C39.975 10.584 41.171 9.531 41.171 8.608V8.4ZM41.483 8.4H42.952V8.608C42.952 9.596 44.109 10.597 46.774 10.818L46.228 12.118C43.147 11.832 41.483 10.441 41.483 8.608V8.4ZM42.094 0.249C44.759 0.249 46.449 1.094 46.449 2.524C46.449 3.954 44.759 4.799 42.094 4.799C39.429 4.799 37.739 3.954 37.739 2.524C37.739 1.094 39.429 0.249 42.094 0.249ZM42.094 1.536C40.43 1.536 39.52 1.861 39.52 2.524C39.52 3.161 40.43 3.499 42.094 3.499C43.745 3.499 44.668 3.161 44.668 2.524C44.668 1.861 43.745 1.536 42.094 1.536Z" fill="white"/>
</svg>
