<svg width="58" height="16" viewBox="0 0 58 16" fill="none" xmlns="http://www.w3.org/2000/svg">
<path d="M4.4 9.616H6.528V12.016H4.4V9.616ZM10.88 0.608H13.008V15.424H10.88V0.608ZM0.976 12.96L0.72 11.248C3.408 11.232 6.992 11.232 10.112 10.816L10.256 12.352C7.04 12.944 3.6 12.96 0.976 12.96ZM1.008 2.24H9.92V3.904H1.008V2.24ZM5.456 4.496C7.648 4.496 9.168 5.616 9.168 7.264C9.168 8.928 7.648 10.048 5.456 10.048C3.296 10.048 1.776 8.928 1.776 7.264C1.776 5.616 3.296 4.496 5.456 4.496ZM5.456 6.096C4.496 6.096 3.808 6.512 3.808 7.264C3.808 8.032 4.496 8.448 5.456 8.448C6.448 8.448 7.136 8.032 7.136 7.264C7.136 6.512 6.448 6.096 5.456 6.096ZM4.4 0.671999H6.528V3.2H4.4V0.671999ZM19.2148 8.208H21.3428V11.456H19.2148V8.208ZM25.7108 0.608H27.8388V11.824H25.7108V0.608ZM17.1668 13.472H28.1588V15.168H17.1668V13.472ZM17.1668 10.768H19.2948V13.92H17.1668V10.768ZM15.5668 8.848L15.3108 7.152C18.0148 7.152 21.6308 7.12 24.7348 6.72L24.8628 8.24C21.7108 8.768 18.2388 8.848 15.5668 8.848ZM22.9108 9.216H26.1748V10.672H22.9108V9.216ZM20.0788 1.12C22.2388 1.12 23.7587 2.192 23.7587 3.76C23.7587 5.344 22.2388 6.4 20.0788 6.4C17.9028 6.4 16.3828 5.344 16.3828 3.76C16.3828 2.192 17.9028 1.12 20.0788 1.12ZM20.0788 2.672C19.0868 2.672 18.3988 3.04 18.3988 3.76C18.3988 4.48 19.0868 4.848 20.0788 4.848C21.0548 4.848 21.7428 4.48 21.7428 3.76C21.7428 3.04 21.0548 2.672 20.0788 2.672ZM39.5495 0.591999H41.6935V15.408H39.5495V0.591999ZM41.1335 6.256H43.7415V8H41.1335V6.256ZM35.6615 2.128H37.7415C37.7415 6.576 36.0455 10.384 31.1175 12.864L29.9335 11.248C33.8215 9.232 35.6615 6.512 35.6615 2.496V2.128ZM30.7495 2.128H36.7495V3.84H30.7495V2.128ZM54.9723 0.608H57.1163V8.576H54.9723V0.608ZM47.2603 9.216H49.3563V10.592H55.0043V9.216H57.1163V15.264H47.2603V9.216ZM49.3563 12.224V13.568H55.0043V12.224H49.3563ZM49.0523 1.216C51.3563 1.216 53.0683 2.672 53.0683 4.72C53.0683 6.768 51.3563 8.224 49.0523 8.224C46.7483 8.224 45.0203 6.768 45.0203 4.72C45.0203 2.672 46.7483 1.216 49.0523 1.216ZM49.0523 2.976C47.9163 2.976 47.1003 3.632 47.1003 4.72C47.1003 5.824 47.9163 6.464 49.0523 6.464C50.1723 6.464 50.9883 5.824 50.9883 4.72C50.9883 3.632 50.1723 2.976 49.0523 2.976Z" fill="white"/>
</svg>
