<svg width="342" height="42" viewBox="0 0 342 42" fill="none" xmlns="http://www.w3.org/2000/svg">
<rect width="342" height="42" rx="21" fill="white"/>
<path d="M313.671 11.0248C308.89 11.0248 305 14.9146 305 19.6963C305 24.478 308.89 28.3678 313.671 28.3678C315.133 28.3678 316.57 28.0209 317.784 27.352C317.882 27.469 317.989 27.5768 318.106 27.674L320.584 30.1516C320.813 30.409 321.092 30.617 321.404 30.7627C321.716 30.9084 322.054 30.9888 322.399 30.9989C322.743 31.009 323.085 30.9487 323.406 30.8216C323.726 30.6945 324.016 30.5033 324.26 30.2598C324.503 30.0163 324.695 29.7256 324.822 29.4055C324.949 29.0854 325.009 28.7428 324.999 28.3985C324.989 28.0543 324.908 27.7157 324.763 27.4037C324.617 27.0917 324.409 26.8127 324.152 26.5839L321.674 24.1063C321.553 23.9856 321.421 23.8777 321.278 23.7843C321.947 22.5703 322.368 21.158 322.368 19.6715C322.368 14.8898 318.478 11 313.696 11L313.671 11.0248ZM313.671 13.5023C317.115 13.5023 319.865 16.2524 319.865 19.6963C319.865 21.3315 319.271 22.8428 318.23 23.9577C318.205 23.9825 318.181 24.0072 318.156 24.032C318.039 24.1293 317.931 24.2371 317.834 24.3541C316.744 25.3451 315.257 25.915 313.647 25.915C310.203 25.915 307.453 23.1649 307.453 19.721C307.453 16.2772 310.203 13.5271 313.647 13.5271L313.671 13.5023Z" fill="black"/>
</svg>
